<mxfile host="app.diagrams.net" agent="Mozilla/5.0 (Windows NT 10.0; Win64; x64) AppleWebKit/537.36 (KHTML, like Gecko) Chrome/129.0.0.0 Safari/537.36" version="24.7.17">
  <diagram name="Page-1" id="hnQOd9XL9jkuYNP3vq7T">
    <mxGraphModel dx="2492" dy="820" grid="1" gridSize="10" guides="1" tooltips="1" connect="1" arrows="1" fold="1" page="1" pageScale="1" pageWidth="1169" pageHeight="827" math="0" shadow="0">
      <root>
        <mxCell id="0" />
        <mxCell id="1" parent="0" />
        <mxCell id="AtylT-WzyxhLgy84_YaQ-3" style="edgeStyle=orthogonalEdgeStyle;rounded=0;orthogonalLoop=1;jettySize=auto;html=1;exitX=0.5;exitY=1;exitDx=0;exitDy=0;entryX=0.5;entryY=0;entryDx=0;entryDy=0;" parent="1" source="AtylT-WzyxhLgy84_YaQ-1" target="AtylT-WzyxhLgy84_YaQ-2" edge="1">
          <mxGeometry relative="1" as="geometry" />
        </mxCell>
        <mxCell id="AtylT-WzyxhLgy84_YaQ-1" value="C++" style="rounded=0;whiteSpace=wrap;html=1;" parent="1" vertex="1">
          <mxGeometry x="525" y="30" width="120" height="60" as="geometry" />
        </mxCell>
        <mxCell id="AtylT-WzyxhLgy84_YaQ-5" style="edgeStyle=orthogonalEdgeStyle;rounded=0;orthogonalLoop=1;jettySize=auto;html=1;exitX=0.5;exitY=1;exitDx=0;exitDy=0;entryX=0.5;entryY=0;entryDx=0;entryDy=0;" parent="1" source="AtylT-WzyxhLgy84_YaQ-2" target="AtylT-WzyxhLgy84_YaQ-4" edge="1">
          <mxGeometry relative="1" as="geometry" />
        </mxCell>
        <mxCell id="AtylT-WzyxhLgy84_YaQ-27" style="edgeStyle=orthogonalEdgeStyle;rounded=0;orthogonalLoop=1;jettySize=auto;html=1;exitX=0.5;exitY=1;exitDx=0;exitDy=0;entryX=0.5;entryY=0;entryDx=0;entryDy=0;" parent="1" source="AtylT-WzyxhLgy84_YaQ-2" target="AtylT-WzyxhLgy84_YaQ-26" edge="1">
          <mxGeometry relative="1" as="geometry" />
        </mxCell>
        <mxCell id="AtylT-WzyxhLgy84_YaQ-29" style="edgeStyle=orthogonalEdgeStyle;rounded=0;orthogonalLoop=1;jettySize=auto;html=1;exitX=0.5;exitY=1;exitDx=0;exitDy=0;entryX=0.5;entryY=0;entryDx=0;entryDy=0;" parent="1" source="AtylT-WzyxhLgy84_YaQ-2" target="AtylT-WzyxhLgy84_YaQ-28" edge="1">
          <mxGeometry relative="1" as="geometry" />
        </mxCell>
        <mxCell id="AtylT-WzyxhLgy84_YaQ-2" value="Anweisungen" style="rounded=0;whiteSpace=wrap;html=1;" parent="1" vertex="1">
          <mxGeometry x="525" y="150" width="120" height="60" as="geometry" />
        </mxCell>
        <mxCell id="AtylT-WzyxhLgy84_YaQ-7" style="edgeStyle=orthogonalEdgeStyle;rounded=0;orthogonalLoop=1;jettySize=auto;html=1;exitX=0.5;exitY=1;exitDx=0;exitDy=0;entryX=0.5;entryY=0;entryDx=0;entryDy=0;" parent="1" source="AtylT-WzyxhLgy84_YaQ-4" target="AtylT-WzyxhLgy84_YaQ-6" edge="1">
          <mxGeometry relative="1" as="geometry" />
        </mxCell>
        <mxCell id="AtylT-WzyxhLgy84_YaQ-11" style="edgeStyle=orthogonalEdgeStyle;rounded=0;orthogonalLoop=1;jettySize=auto;html=1;exitX=0.5;exitY=1;exitDx=0;exitDy=0;entryX=0.5;entryY=0;entryDx=0;entryDy=0;" parent="1" source="AtylT-WzyxhLgy84_YaQ-4" target="AtylT-WzyxhLgy84_YaQ-10" edge="1">
          <mxGeometry relative="1" as="geometry" />
        </mxCell>
        <mxCell id="uYy194OG72HgeWPHErnt-14" style="edgeStyle=orthogonalEdgeStyle;rounded=0;orthogonalLoop=1;jettySize=auto;html=1;exitX=0.5;exitY=1;exitDx=0;exitDy=0;entryX=0.5;entryY=0;entryDx=0;entryDy=0;" edge="1" parent="1" source="AtylT-WzyxhLgy84_YaQ-4" target="uYy194OG72HgeWPHErnt-13">
          <mxGeometry relative="1" as="geometry" />
        </mxCell>
        <mxCell id="AtylT-WzyxhLgy84_YaQ-4" value="Kontrollstrukturen" style="rounded=0;whiteSpace=wrap;html=1;" parent="1" vertex="1">
          <mxGeometry x="310" y="250" width="120" height="60" as="geometry" />
        </mxCell>
        <mxCell id="uYy194OG72HgeWPHErnt-5" style="edgeStyle=orthogonalEdgeStyle;rounded=0;orthogonalLoop=1;jettySize=auto;html=1;exitX=0.5;exitY=1;exitDx=0;exitDy=0;entryX=0.5;entryY=0;entryDx=0;entryDy=0;" edge="1" parent="1" source="AtylT-WzyxhLgy84_YaQ-6" target="uYy194OG72HgeWPHErnt-4">
          <mxGeometry relative="1" as="geometry" />
        </mxCell>
        <mxCell id="uYy194OG72HgeWPHErnt-6" style="edgeStyle=orthogonalEdgeStyle;rounded=0;orthogonalLoop=1;jettySize=auto;html=1;exitX=0.5;exitY=1;exitDx=0;exitDy=0;entryX=0.5;entryY=0;entryDx=0;entryDy=0;" edge="1" parent="1" source="AtylT-WzyxhLgy84_YaQ-6" target="uYy194OG72HgeWPHErnt-3">
          <mxGeometry relative="1" as="geometry" />
        </mxCell>
        <mxCell id="uYy194OG72HgeWPHErnt-7" style="edgeStyle=orthogonalEdgeStyle;rounded=0;orthogonalLoop=1;jettySize=auto;html=1;exitX=0.5;exitY=1;exitDx=0;exitDy=0;entryX=0.5;entryY=0;entryDx=0;entryDy=0;" edge="1" parent="1" source="AtylT-WzyxhLgy84_YaQ-6" target="uYy194OG72HgeWPHErnt-2">
          <mxGeometry relative="1" as="geometry" />
        </mxCell>
        <mxCell id="AtylT-WzyxhLgy84_YaQ-6" value="Verzweigungen" style="rounded=0;whiteSpace=wrap;html=1;" parent="1" vertex="1">
          <mxGeometry x="70" y="370" width="120" height="60" as="geometry" />
        </mxCell>
        <mxCell id="AtylT-WzyxhLgy84_YaQ-13" style="edgeStyle=orthogonalEdgeStyle;rounded=0;orthogonalLoop=1;jettySize=auto;html=1;exitX=0.5;exitY=1;exitDx=0;exitDy=0;entryX=0.5;entryY=0;entryDx=0;entryDy=0;" parent="1" source="AtylT-WzyxhLgy84_YaQ-10" target="AtylT-WzyxhLgy84_YaQ-12" edge="1">
          <mxGeometry relative="1" as="geometry" />
        </mxCell>
        <mxCell id="AtylT-WzyxhLgy84_YaQ-22" style="edgeStyle=orthogonalEdgeStyle;rounded=0;orthogonalLoop=1;jettySize=auto;html=1;exitX=0.5;exitY=1;exitDx=0;exitDy=0;entryX=0.5;entryY=0;entryDx=0;entryDy=0;" parent="1" source="AtylT-WzyxhLgy84_YaQ-10" target="AtylT-WzyxhLgy84_YaQ-14" edge="1">
          <mxGeometry relative="1" as="geometry" />
        </mxCell>
        <mxCell id="AtylT-WzyxhLgy84_YaQ-10" value="Wiederholungen" style="rounded=0;whiteSpace=wrap;html=1;" parent="1" vertex="1">
          <mxGeometry x="440" y="370" width="120" height="60" as="geometry" />
        </mxCell>
        <mxCell id="AtylT-WzyxhLgy84_YaQ-12" value="Kopfgesteuert" style="rounded=0;whiteSpace=wrap;html=1;" parent="1" vertex="1">
          <mxGeometry x="290" y="470" width="120" height="60" as="geometry" />
        </mxCell>
        <mxCell id="AtylT-WzyxhLgy84_YaQ-14" value="Fußgesteuert" style="rounded=0;whiteSpace=wrap;html=1;" parent="1" vertex="1">
          <mxGeometry x="440" y="470" width="120" height="60" as="geometry" />
        </mxCell>
        <mxCell id="AtylT-WzyxhLgy84_YaQ-15" value="Zählergesteuert" style="rounded=0;whiteSpace=wrap;html=1;" parent="1" vertex="1">
          <mxGeometry x="584" y="470" width="120" height="60" as="geometry" />
        </mxCell>
        <mxCell id="AtylT-WzyxhLgy84_YaQ-21" style="edgeStyle=orthogonalEdgeStyle;rounded=0;orthogonalLoop=1;jettySize=auto;html=1;exitX=0.5;exitY=1;exitDx=0;exitDy=0;entryX=0.51;entryY=0.153;entryDx=0;entryDy=0;entryPerimeter=0;" parent="1" source="AtylT-WzyxhLgy84_YaQ-10" target="AtylT-WzyxhLgy84_YaQ-15" edge="1">
          <mxGeometry relative="1" as="geometry" />
        </mxCell>
        <mxCell id="AtylT-WzyxhLgy84_YaQ-31" style="edgeStyle=orthogonalEdgeStyle;rounded=0;orthogonalLoop=1;jettySize=auto;html=1;exitX=0.5;exitY=1;exitDx=0;exitDy=0;entryX=0.5;entryY=0;entryDx=0;entryDy=0;" parent="1" source="AtylT-WzyxhLgy84_YaQ-26" target="AtylT-WzyxhLgy84_YaQ-30" edge="1">
          <mxGeometry relative="1" as="geometry" />
        </mxCell>
        <mxCell id="AtylT-WzyxhLgy84_YaQ-26" value="Variablen" style="rounded=0;whiteSpace=wrap;html=1;" parent="1" vertex="1">
          <mxGeometry x="740" y="250" width="120" height="60" as="geometry" />
        </mxCell>
        <mxCell id="AtylT-WzyxhLgy84_YaQ-28" value="Funktionen" style="rounded=0;whiteSpace=wrap;html=1;" parent="1" vertex="1">
          <mxGeometry x="525" y="250" width="120" height="60" as="geometry" />
        </mxCell>
        <mxCell id="AtylT-WzyxhLgy84_YaQ-35" style="edgeStyle=orthogonalEdgeStyle;rounded=0;orthogonalLoop=1;jettySize=auto;html=1;exitX=0.5;exitY=1;exitDx=0;exitDy=0;entryX=0.5;entryY=0;entryDx=0;entryDy=0;" parent="1" source="AtylT-WzyxhLgy84_YaQ-30" target="AtylT-WzyxhLgy84_YaQ-32" edge="1">
          <mxGeometry relative="1" as="geometry" />
        </mxCell>
        <mxCell id="AtylT-WzyxhLgy84_YaQ-36" style="edgeStyle=orthogonalEdgeStyle;rounded=0;orthogonalLoop=1;jettySize=auto;html=1;exitX=0.5;exitY=1;exitDx=0;exitDy=0;entryX=0.5;entryY=0;entryDx=0;entryDy=0;" parent="1" source="AtylT-WzyxhLgy84_YaQ-30" target="AtylT-WzyxhLgy84_YaQ-33" edge="1">
          <mxGeometry relative="1" as="geometry" />
        </mxCell>
        <mxCell id="AtylT-WzyxhLgy84_YaQ-37" style="edgeStyle=orthogonalEdgeStyle;rounded=0;orthogonalLoop=1;jettySize=auto;html=1;exitX=0.5;exitY=1;exitDx=0;exitDy=0;entryX=0.5;entryY=0;entryDx=0;entryDy=0;" parent="1" source="AtylT-WzyxhLgy84_YaQ-30" target="AtylT-WzyxhLgy84_YaQ-34" edge="1">
          <mxGeometry relative="1" as="geometry" />
        </mxCell>
        <mxCell id="AtylT-WzyxhLgy84_YaQ-39" style="edgeStyle=orthogonalEdgeStyle;rounded=0;orthogonalLoop=1;jettySize=auto;html=1;exitX=0.5;exitY=1;exitDx=0;exitDy=0;" parent="1" source="AtylT-WzyxhLgy84_YaQ-30" target="AtylT-WzyxhLgy84_YaQ-38" edge="1">
          <mxGeometry relative="1" as="geometry" />
        </mxCell>
        <mxCell id="uYy194OG72HgeWPHErnt-12" style="edgeStyle=orthogonalEdgeStyle;rounded=0;orthogonalLoop=1;jettySize=auto;html=1;exitX=0.5;exitY=1;exitDx=0;exitDy=0;entryX=0.5;entryY=0;entryDx=0;entryDy=0;" edge="1" parent="1" source="AtylT-WzyxhLgy84_YaQ-30" target="uYy194OG72HgeWPHErnt-11">
          <mxGeometry relative="1" as="geometry" />
        </mxCell>
        <mxCell id="AtylT-WzyxhLgy84_YaQ-30" value="Datentypen" style="rounded=0;whiteSpace=wrap;html=1;" parent="1" vertex="1">
          <mxGeometry x="740" y="340" width="120" height="60" as="geometry" />
        </mxCell>
        <mxCell id="AtylT-WzyxhLgy84_YaQ-32" value="String" style="rounded=0;whiteSpace=wrap;html=1;" parent="1" vertex="1">
          <mxGeometry x="740" y="440" width="120" height="60" as="geometry" />
        </mxCell>
        <mxCell id="AtylT-WzyxhLgy84_YaQ-42" style="edgeStyle=orthogonalEdgeStyle;rounded=0;orthogonalLoop=1;jettySize=auto;html=1;exitX=0.5;exitY=1;exitDx=0;exitDy=0;" parent="1" source="AtylT-WzyxhLgy84_YaQ-33" target="AtylT-WzyxhLgy84_YaQ-40" edge="1">
          <mxGeometry relative="1" as="geometry" />
        </mxCell>
        <mxCell id="AtylT-WzyxhLgy84_YaQ-43" style="edgeStyle=orthogonalEdgeStyle;rounded=0;orthogonalLoop=1;jettySize=auto;html=1;exitX=0.5;exitY=1;exitDx=0;exitDy=0;entryX=0.5;entryY=0;entryDx=0;entryDy=0;" parent="1" source="AtylT-WzyxhLgy84_YaQ-33" target="AtylT-WzyxhLgy84_YaQ-41" edge="1">
          <mxGeometry relative="1" as="geometry" />
        </mxCell>
        <mxCell id="AtylT-WzyxhLgy84_YaQ-33" value="Integer" style="rounded=0;whiteSpace=wrap;html=1;" parent="1" vertex="1">
          <mxGeometry x="890" y="440" width="120" height="60" as="geometry" />
        </mxCell>
        <mxCell id="AtylT-WzyxhLgy84_YaQ-34" value="Character" style="rounded=0;whiteSpace=wrap;html=1;" parent="1" vertex="1">
          <mxGeometry x="1030" y="440" width="120" height="60" as="geometry" />
        </mxCell>
        <mxCell id="AtylT-WzyxhLgy84_YaQ-38" value="Boolean" style="rounded=0;whiteSpace=wrap;html=1;" parent="1" vertex="1">
          <mxGeometry x="1169" y="440" width="120" height="60" as="geometry" />
        </mxCell>
        <mxCell id="AtylT-WzyxhLgy84_YaQ-40" value="short" style="rounded=0;whiteSpace=wrap;html=1;" parent="1" vertex="1">
          <mxGeometry x="820" y="540" width="120" height="60" as="geometry" />
        </mxCell>
        <mxCell id="AtylT-WzyxhLgy84_YaQ-41" value="long" style="rounded=0;whiteSpace=wrap;html=1;" parent="1" vertex="1">
          <mxGeometry x="970" y="540" width="120" height="60" as="geometry" />
        </mxCell>
        <mxCell id="uYy194OG72HgeWPHErnt-2" value="Mehrfache Verzweigung" style="rounded=0;whiteSpace=wrap;html=1;" vertex="1" parent="1">
          <mxGeometry x="160" y="470" width="120" height="60" as="geometry" />
        </mxCell>
        <mxCell id="uYy194OG72HgeWPHErnt-3" value="Einfache Verzweigung" style="rounded=0;whiteSpace=wrap;html=1;" vertex="1" parent="1">
          <mxGeometry x="30" y="470" width="120" height="60" as="geometry" />
        </mxCell>
        <mxCell id="uYy194OG72HgeWPHErnt-4" value="Switch Case" style="rounded=0;whiteSpace=wrap;html=1;" vertex="1" parent="1">
          <mxGeometry x="-100" y="470" width="120" height="60" as="geometry" />
        </mxCell>
        <mxCell id="uYy194OG72HgeWPHErnt-11" value="Stack" style="rounded=0;whiteSpace=wrap;html=1;" vertex="1" parent="1">
          <mxGeometry x="1310" y="440" width="120" height="60" as="geometry" />
        </mxCell>
        <mxCell id="uYy194OG72HgeWPHErnt-13" value="Sequenz" style="rounded=0;whiteSpace=wrap;html=1;" vertex="1" parent="1">
          <mxGeometry x="270" y="370" width="120" height="60" as="geometry" />
        </mxCell>
      </root>
    </mxGraphModel>
  </diagram>
</mxfile>
